G04*
G04 #@! TF.GenerationSoftware,Altium Limited,Altium Designer,20.0.10 (225)*
G04*
G04 Layer_Physical_Order=4*
G04 Layer_Color=16711680*
%FSLAX42Y42*%
%MOMM*%
G71*
G01*
G75*
%ADD10C,0.25*%
%ADD18C,1.52*%
%ADD19R,1.52X1.52*%
%ADD20C,1.00*%
%ADD21C,1.65*%
%ADD22R,1.65X1.65*%
%ADD23R,1.65X1.65*%
%ADD24R,1.25X1.50*%
D10*
X2286Y5334D02*
Y5740D01*
X2040Y5334D02*
X2286D01*
Y4699D02*
Y5334D01*
X2403Y4181D02*
Y4689D01*
X2032Y3810D02*
X2403Y4181D01*
X1605Y1524D02*
X2032D01*
X1604Y1245D02*
X1629Y1270D01*
X2032D01*
X2032Y1270D01*
X1016Y3429D02*
X2286Y4699D01*
X254Y3429D02*
X1016D01*
X2667Y4953D02*
X2794D01*
X2403Y4689D02*
X2667Y4953D01*
D18*
X2794Y5461D02*
D03*
Y5207D02*
D03*
Y4445D02*
D03*
Y4191D02*
D03*
Y3937D02*
D03*
Y3429D02*
D03*
Y2921D02*
D03*
Y2667D02*
D03*
Y2159D02*
D03*
Y1905D02*
D03*
Y1651D02*
D03*
Y1143D02*
D03*
Y1397D02*
D03*
Y2413D02*
D03*
Y3175D02*
D03*
Y3683D02*
D03*
Y4699D02*
D03*
Y4953D02*
D03*
X254Y889D02*
D03*
Y1143D02*
D03*
Y1905D02*
D03*
Y2159D02*
D03*
Y2413D02*
D03*
Y2921D02*
D03*
Y3429D02*
D03*
Y3683D02*
D03*
Y4191D02*
D03*
Y4445D02*
D03*
Y4699D02*
D03*
Y5207D02*
D03*
Y4953D02*
D03*
Y3937D02*
D03*
Y3175D02*
D03*
Y2667D02*
D03*
Y1651D02*
D03*
Y1397D02*
D03*
D19*
X2794Y889D02*
D03*
X254Y5461D02*
D03*
D20*
X2794Y6096D02*
D03*
X254D02*
D03*
X2794Y254D02*
D03*
X254D02*
D03*
D21*
X1143Y5311D02*
D03*
X1397D02*
D03*
X2032Y1524D02*
D03*
Y1270D02*
D03*
Y1016D02*
D03*
Y2794D02*
D03*
Y2540D02*
D03*
Y2286D02*
D03*
Y4064D02*
D03*
Y3810D02*
D03*
Y3556D02*
D03*
X2034Y5334D02*
D03*
Y5080D02*
D03*
D22*
X1651Y5311D02*
D03*
D23*
X2032Y762D02*
D03*
Y2032D02*
D03*
Y3302D02*
D03*
X2034Y4826D02*
D03*
D24*
X2083Y5740D02*
D03*
X2293D02*
D03*
X1394Y1245D02*
D03*
X1604D02*
D03*
X1394Y1525D02*
D03*
X1604D02*
D03*
M02*
