G04*
G04 #@! TF.GenerationSoftware,Altium Limited,Altium Designer,20.0.10 (225)*
G04*
G04 Layer_Color=32768*
%FSLAX42Y42*%
%MOMM*%
G71*
G01*
G75*
%ADD27C,0.10*%
%ADD28C,0.05*%
D27*
X2138Y5740D02*
X2238D01*
X2188Y5690D02*
Y5790D01*
X1449Y1245D02*
X1549D01*
X1499Y1195D02*
Y1295D01*
X1449Y1525D02*
X1549D01*
X1499Y1475D02*
Y1575D01*
D28*
X2744Y3302D02*
X2844D01*
X2794Y3252D02*
Y3352D01*
X2639Y705D02*
Y5647D01*
X2949D01*
Y705D02*
Y5647D01*
X2639Y705D02*
X2949D01*
X204Y3048D02*
X304D01*
X254Y2998D02*
Y3098D01*
X409Y703D02*
Y5646D01*
X99Y703D02*
X409D01*
X99D02*
Y5646D01*
X409D01*
X1347Y5588D02*
X1447D01*
X1397Y5538D02*
Y5638D01*
X981Y5208D02*
X1813D01*
Y6335D01*
X981D02*
X1813D01*
X981Y5208D02*
Y6335D01*
X1968Y5615D02*
Y5865D01*
X2408Y5615D02*
Y5865D01*
X1968Y5615D02*
X2408D01*
X1968Y5865D02*
X2408D01*
X1279Y1120D02*
Y1370D01*
X1719Y1120D02*
Y1370D01*
X1279Y1120D02*
X1719Y1120D01*
X1279Y1370D02*
X1719D01*
X1279Y1400D02*
X1279Y1650D01*
X1719Y1400D02*
Y1650D01*
X1279Y1400D02*
X1719Y1400D01*
X1279Y1650D02*
X1719D01*
X2309Y1093D02*
Y1193D01*
X2259Y1143D02*
X2359D01*
X1930Y1686D02*
X3056D01*
Y600D02*
Y1686D01*
X1930Y600D02*
X3056D01*
X1930D02*
Y1686D01*
X2309Y2363D02*
Y2463D01*
X2259Y2413D02*
X2359D01*
X1930Y2956D02*
X3056D01*
Y1870D02*
Y2956D01*
X1930Y1870D02*
X3056D01*
X1930D02*
Y2956D01*
X2309Y3633D02*
Y3733D01*
X2259Y3683D02*
X2359D01*
X1930Y4226D02*
X3056D01*
Y3140D02*
Y4226D01*
X1930Y3140D02*
X3056D01*
X1930D02*
Y4226D01*
X2311Y5030D02*
Y5130D01*
X2261Y5080D02*
X2361D01*
X1932Y4664D02*
Y5496D01*
Y4664D02*
X3058D01*
Y5496D01*
X1932D02*
X3058D01*
M02*
