M48
;Layer_Color=9474304
;FILE_FORMAT=4:2
METRIC,LZ
;TYPE=PLATED
T1F00S00C1.02
T2F00S00C1.10
T3F00S00C3.20
%
T01
X000254Y000889
Y001143
Y001397
Y001651
Y001905
Y002159
Y002413
Y002667
Y002921
Y003175
Y003429
Y003683
Y003937
Y004191
Y004445
Y004699
X002794
Y004445
Y004191
Y003937
Y003683
Y003429
Y003175
Y002921
Y002667
Y002413
Y002159
Y001905
Y001651
Y001397
Y001143
Y000889
Y004953
Y005207
Y005461
X000254
Y005207
Y004953
T02
X002032Y000762
Y001016
Y00127
Y001524
Y002032
Y002286
Y00254
Y002794
Y003302
Y003556
Y00381
Y004064
X002034Y004826
Y00508
Y005334
X001651Y005311
X001397
X001143
T03
X000254Y000254
X002794
Y006096
X000254
M30
