G04*
G04 #@! TF.GenerationSoftware,Altium Limited,Altium Designer,20.0.10 (225)*
G04*
G04 Layer_Physical_Order=3*
G04 Layer_Color=16440176*
%FSLAX42Y42*%
%MOMM*%
G71*
G01*
G75*
%ADD18C,1.52*%
%ADD21C,1.65*%
%ADD22R,1.65X1.65*%
%ADD23R,1.65X1.65*%
G36*
X3023Y25D02*
X2997Y25D01*
X2972Y25D01*
X25Y25D01*
Y6325D01*
X3023D01*
Y25D01*
D02*
G37*
%LPC*%
G36*
X2794Y6282D02*
X2758Y6279D01*
X2723Y6268D01*
X2690Y6251D01*
X2662Y6228D01*
X2639Y6200D01*
X2622Y6167D01*
X2611Y6132D01*
X2608Y6096D01*
X2611Y6060D01*
X2622Y6025D01*
X2639Y5992D01*
X2662Y5964D01*
X2690Y5941D01*
X2723Y5924D01*
X2758Y5913D01*
X2794Y5910D01*
X2830Y5913D01*
X2865Y5924D01*
X2898Y5941D01*
X2926Y5964D01*
X2949Y5992D01*
X2966Y6025D01*
X2977Y6060D01*
X2980Y6096D01*
X2977Y6132D01*
X2966Y6167D01*
X2949Y6200D01*
X2926Y6228D01*
X2898Y6251D01*
X2865Y6268D01*
X2830Y6279D01*
X2794Y6282D01*
D02*
G37*
G36*
X254D02*
X218Y6279D01*
X183Y6268D01*
X150Y6251D01*
X122Y6228D01*
X99Y6200D01*
X82Y6167D01*
X71Y6132D01*
X68Y6096D01*
X71Y6060D01*
X82Y6025D01*
X99Y5992D01*
X122Y5964D01*
X150Y5941D01*
X183Y5924D01*
X218Y5913D01*
X254Y5910D01*
X290Y5913D01*
X325Y5924D01*
X358Y5941D01*
X386Y5964D01*
X409Y5992D01*
X426Y6025D01*
X437Y6060D01*
X440Y6096D01*
X437Y6132D01*
X426Y6167D01*
X409Y6200D01*
X386Y6228D01*
X358Y6251D01*
X325Y6268D01*
X290Y6279D01*
X254Y6282D01*
D02*
G37*
G36*
X355Y5562D02*
X153D01*
Y5360D01*
X355D01*
Y5562D01*
D02*
G37*
G36*
X2794Y5563D02*
X2768Y5560D01*
X2743Y5550D01*
X2722Y5533D01*
X2705Y5512D01*
X2695Y5487D01*
X2692Y5461D01*
X2695Y5435D01*
X2705Y5410D01*
X2722Y5389D01*
X2743Y5372D01*
X2768Y5362D01*
X2794Y5359D01*
X2820Y5362D01*
X2845Y5372D01*
X2866Y5389D01*
X2883Y5410D01*
X2893Y5435D01*
X2896Y5461D01*
X2893Y5487D01*
X2883Y5512D01*
X2866Y5533D01*
X2845Y5550D01*
X2820Y5560D01*
X2794Y5563D01*
D02*
G37*
G36*
X1759Y5419D02*
X1664D01*
Y5324D01*
X1759D01*
Y5419D01*
D02*
G37*
G36*
X1638D02*
X1543D01*
Y5324D01*
X1638D01*
Y5419D01*
D02*
G37*
G36*
X1156Y5418D02*
Y5324D01*
X1250D01*
X1248Y5339D01*
X1237Y5365D01*
X1220Y5388D01*
X1197Y5405D01*
X1171Y5416D01*
X1156Y5418D01*
D02*
G37*
G36*
X1130D02*
X1115Y5416D01*
X1089Y5405D01*
X1066Y5388D01*
X1049Y5365D01*
X1038Y5339D01*
X1036Y5324D01*
X1130D01*
Y5418D01*
D02*
G37*
G36*
X2034Y5443D02*
X2006Y5439D01*
X1980Y5428D01*
X1957Y5411D01*
X1940Y5388D01*
X1929Y5362D01*
X1926Y5334D01*
X1929Y5306D01*
X1940Y5280D01*
X1957Y5257D01*
X1980Y5240D01*
X2006Y5229D01*
X2034Y5225D01*
X2063Y5229D01*
X2089Y5240D01*
X2111Y5257D01*
X2129Y5280D01*
X2140Y5306D01*
X2143Y5334D01*
X2140Y5362D01*
X2129Y5388D01*
X2111Y5411D01*
X2089Y5428D01*
X2063Y5439D01*
X2034Y5443D01*
D02*
G37*
G36*
X1250Y5298D02*
X1156D01*
Y5204D01*
X1171Y5206D01*
X1197Y5217D01*
X1220Y5234D01*
X1237Y5257D01*
X1248Y5283D01*
X1250Y5298D01*
D02*
G37*
G36*
X1130D02*
X1036D01*
X1038Y5283D01*
X1049Y5257D01*
X1066Y5234D01*
X1089Y5217D01*
X1115Y5206D01*
X1130Y5204D01*
Y5298D01*
D02*
G37*
G36*
X1759D02*
X1664D01*
Y5203D01*
X1759D01*
Y5298D01*
D02*
G37*
G36*
X1638D02*
X1543D01*
Y5203D01*
X1638D01*
Y5298D01*
D02*
G37*
G36*
X1397Y5420D02*
X1369Y5416D01*
X1343Y5405D01*
X1320Y5388D01*
X1303Y5365D01*
X1292Y5339D01*
X1288Y5311D01*
X1292Y5283D01*
X1303Y5257D01*
X1320Y5234D01*
X1343Y5217D01*
X1369Y5206D01*
X1397Y5202D01*
X1425Y5206D01*
X1451Y5217D01*
X1474Y5234D01*
X1491Y5257D01*
X1502Y5283D01*
X1506Y5311D01*
X1502Y5339D01*
X1491Y5365D01*
X1474Y5388D01*
X1451Y5405D01*
X1425Y5416D01*
X1397Y5420D01*
D02*
G37*
G36*
X2794Y5309D02*
X2768Y5306D01*
X2743Y5296D01*
X2722Y5279D01*
X2705Y5258D01*
X2695Y5233D01*
X2692Y5207D01*
X2695Y5181D01*
X2705Y5156D01*
X2722Y5135D01*
X2743Y5118D01*
X2768Y5108D01*
X2794Y5105D01*
X2820Y5108D01*
X2845Y5118D01*
X2866Y5135D01*
X2883Y5156D01*
X2893Y5181D01*
X2896Y5207D01*
X2893Y5233D01*
X2883Y5258D01*
X2866Y5279D01*
X2845Y5296D01*
X2820Y5306D01*
X2794Y5309D01*
D02*
G37*
G36*
X254D02*
X228Y5306D01*
X203Y5296D01*
X182Y5279D01*
X165Y5258D01*
X155Y5233D01*
X152Y5207D01*
X155Y5181D01*
X165Y5156D01*
X182Y5135D01*
X203Y5118D01*
X228Y5108D01*
X254Y5105D01*
X280Y5108D01*
X305Y5118D01*
X326Y5135D01*
X343Y5156D01*
X353Y5181D01*
X356Y5207D01*
X353Y5233D01*
X343Y5258D01*
X326Y5279D01*
X305Y5296D01*
X280Y5306D01*
X254Y5309D01*
D02*
G37*
G36*
X2034Y5189D02*
X2006Y5185D01*
X1980Y5174D01*
X1957Y5157D01*
X1940Y5134D01*
X1929Y5108D01*
X1926Y5080D01*
X1929Y5052D01*
X1940Y5026D01*
X1957Y5003D01*
X1980Y4986D01*
X2006Y4975D01*
X2034Y4971D01*
X2063Y4975D01*
X2089Y4986D01*
X2111Y5003D01*
X2129Y5026D01*
X2140Y5052D01*
X2143Y5080D01*
X2140Y5108D01*
X2129Y5134D01*
X2111Y5157D01*
X2089Y5174D01*
X2063Y5185D01*
X2034Y5189D01*
D02*
G37*
G36*
X2794Y5055D02*
X2768Y5052D01*
X2743Y5042D01*
X2722Y5025D01*
X2705Y5004D01*
X2695Y4979D01*
X2692Y4953D01*
X2695Y4927D01*
X2705Y4902D01*
X2722Y4881D01*
X2743Y4864D01*
X2768Y4854D01*
X2794Y4851D01*
X2820Y4854D01*
X2845Y4864D01*
X2866Y4881D01*
X2883Y4902D01*
X2893Y4927D01*
X2896Y4953D01*
X2893Y4979D01*
X2883Y5004D01*
X2866Y5025D01*
X2845Y5042D01*
X2820Y5052D01*
X2794Y5055D01*
D02*
G37*
G36*
X254D02*
X228Y5052D01*
X203Y5042D01*
X182Y5025D01*
X165Y5004D01*
X155Y4979D01*
X152Y4953D01*
X155Y4927D01*
X165Y4902D01*
X182Y4881D01*
X203Y4864D01*
X228Y4854D01*
X254Y4851D01*
X280Y4854D01*
X305Y4864D01*
X326Y4881D01*
X343Y4902D01*
X353Y4927D01*
X356Y4953D01*
X353Y4979D01*
X343Y5004D01*
X326Y5025D01*
X305Y5042D01*
X280Y5052D01*
X254Y5055D01*
D02*
G37*
G36*
X2142Y4934D02*
X2047D01*
Y4839D01*
X2142D01*
Y4934D01*
D02*
G37*
G36*
X2022D02*
X1926D01*
Y4839D01*
X2022D01*
Y4934D01*
D02*
G37*
G36*
X2142Y4813D02*
X2047D01*
Y4718D01*
X2142D01*
Y4813D01*
D02*
G37*
G36*
X2022D02*
X1926D01*
Y4718D01*
X2022D01*
Y4813D01*
D02*
G37*
G36*
X2794Y4801D02*
X2768Y4798D01*
X2743Y4788D01*
X2722Y4771D01*
X2705Y4750D01*
X2695Y4725D01*
X2692Y4699D01*
X2695Y4673D01*
X2705Y4648D01*
X2722Y4627D01*
X2743Y4610D01*
X2768Y4600D01*
X2794Y4597D01*
X2820Y4600D01*
X2845Y4610D01*
X2866Y4627D01*
X2883Y4648D01*
X2893Y4673D01*
X2896Y4699D01*
X2893Y4725D01*
X2883Y4750D01*
X2866Y4771D01*
X2845Y4788D01*
X2820Y4798D01*
X2794Y4801D01*
D02*
G37*
G36*
X254D02*
X228Y4798D01*
X203Y4788D01*
X182Y4771D01*
X165Y4750D01*
X155Y4725D01*
X152Y4699D01*
X155Y4673D01*
X165Y4648D01*
X182Y4627D01*
X203Y4610D01*
X228Y4600D01*
X254Y4597D01*
X280Y4600D01*
X305Y4610D01*
X326Y4627D01*
X343Y4648D01*
X353Y4673D01*
X356Y4699D01*
X353Y4725D01*
X343Y4750D01*
X326Y4771D01*
X305Y4788D01*
X280Y4798D01*
X254Y4801D01*
D02*
G37*
G36*
X2794Y4547D02*
X2768Y4544D01*
X2743Y4534D01*
X2722Y4517D01*
X2705Y4496D01*
X2695Y4471D01*
X2692Y4445D01*
X2695Y4419D01*
X2705Y4394D01*
X2722Y4373D01*
X2743Y4356D01*
X2768Y4346D01*
X2794Y4343D01*
X2820Y4346D01*
X2845Y4356D01*
X2866Y4373D01*
X2883Y4394D01*
X2893Y4419D01*
X2896Y4445D01*
X2893Y4471D01*
X2883Y4496D01*
X2866Y4517D01*
X2845Y4534D01*
X2820Y4544D01*
X2794Y4547D01*
D02*
G37*
G36*
X254D02*
X228Y4544D01*
X203Y4534D01*
X182Y4517D01*
X165Y4496D01*
X155Y4471D01*
X152Y4445D01*
X155Y4419D01*
X165Y4394D01*
X182Y4373D01*
X203Y4356D01*
X228Y4346D01*
X254Y4343D01*
X280Y4346D01*
X305Y4356D01*
X326Y4373D01*
X343Y4394D01*
X353Y4419D01*
X356Y4445D01*
X353Y4471D01*
X343Y4496D01*
X326Y4517D01*
X305Y4534D01*
X280Y4544D01*
X254Y4547D01*
D02*
G37*
G36*
X2794Y4293D02*
X2768Y4290D01*
X2743Y4280D01*
X2722Y4263D01*
X2705Y4242D01*
X2695Y4217D01*
X2692Y4191D01*
X2695Y4165D01*
X2705Y4140D01*
X2722Y4119D01*
X2743Y4102D01*
X2768Y4092D01*
X2794Y4089D01*
X2820Y4092D01*
X2845Y4102D01*
X2866Y4119D01*
X2883Y4140D01*
X2893Y4165D01*
X2896Y4191D01*
X2893Y4217D01*
X2883Y4242D01*
X2866Y4263D01*
X2845Y4280D01*
X2820Y4290D01*
X2794Y4293D01*
D02*
G37*
G36*
X254D02*
X228Y4290D01*
X203Y4280D01*
X182Y4263D01*
X165Y4242D01*
X155Y4217D01*
X152Y4191D01*
X155Y4165D01*
X165Y4140D01*
X182Y4119D01*
X203Y4102D01*
X228Y4092D01*
X254Y4089D01*
X280Y4092D01*
X305Y4102D01*
X326Y4119D01*
X343Y4140D01*
X353Y4165D01*
X356Y4191D01*
X353Y4217D01*
X343Y4242D01*
X326Y4263D01*
X305Y4280D01*
X280Y4290D01*
X254Y4293D01*
D02*
G37*
G36*
X2032Y4173D02*
X2004Y4169D01*
X1978Y4158D01*
X1955Y4141D01*
X1938Y4118D01*
X1927Y4092D01*
X1923Y4064D01*
X1927Y4036D01*
X1938Y4010D01*
X1955Y3987D01*
X1978Y3970D01*
X2004Y3959D01*
X2032Y3955D01*
X2060Y3959D01*
X2086Y3970D01*
X2109Y3987D01*
X2126Y4010D01*
X2137Y4036D01*
X2141Y4064D01*
X2137Y4092D01*
X2126Y4118D01*
X2109Y4141D01*
X2086Y4158D01*
X2060Y4169D01*
X2032Y4173D01*
D02*
G37*
G36*
X2794Y4039D02*
X2768Y4036D01*
X2743Y4026D01*
X2722Y4009D01*
X2705Y3988D01*
X2695Y3963D01*
X2692Y3937D01*
X2695Y3911D01*
X2705Y3886D01*
X2722Y3865D01*
X2743Y3848D01*
X2768Y3838D01*
X2794Y3835D01*
X2820Y3838D01*
X2845Y3848D01*
X2866Y3865D01*
X2883Y3886D01*
X2893Y3911D01*
X2896Y3937D01*
X2893Y3963D01*
X2883Y3988D01*
X2866Y4009D01*
X2845Y4026D01*
X2820Y4036D01*
X2794Y4039D01*
D02*
G37*
G36*
X254D02*
X228Y4036D01*
X203Y4026D01*
X182Y4009D01*
X165Y3988D01*
X155Y3963D01*
X152Y3937D01*
X155Y3911D01*
X165Y3886D01*
X182Y3865D01*
X203Y3848D01*
X228Y3838D01*
X254Y3835D01*
X280Y3838D01*
X305Y3848D01*
X326Y3865D01*
X343Y3886D01*
X353Y3911D01*
X356Y3937D01*
X353Y3963D01*
X343Y3988D01*
X326Y4009D01*
X305Y4026D01*
X280Y4036D01*
X254Y4039D01*
D02*
G37*
G36*
X2032Y3919D02*
X2004Y3915D01*
X1978Y3904D01*
X1955Y3887D01*
X1938Y3864D01*
X1927Y3838D01*
X1923Y3810D01*
X1927Y3782D01*
X1938Y3756D01*
X1955Y3733D01*
X1978Y3716D01*
X2004Y3705D01*
X2032Y3701D01*
X2060Y3705D01*
X2086Y3716D01*
X2109Y3733D01*
X2126Y3756D01*
X2137Y3782D01*
X2141Y3810D01*
X2137Y3838D01*
X2126Y3864D01*
X2109Y3887D01*
X2086Y3904D01*
X2060Y3915D01*
X2032Y3919D01*
D02*
G37*
G36*
X2794Y3785D02*
X2768Y3782D01*
X2743Y3772D01*
X2722Y3755D01*
X2705Y3734D01*
X2695Y3709D01*
X2692Y3683D01*
X2695Y3657D01*
X2705Y3632D01*
X2722Y3611D01*
X2743Y3594D01*
X2768Y3584D01*
X2794Y3581D01*
X2820Y3584D01*
X2845Y3594D01*
X2866Y3611D01*
X2883Y3632D01*
X2893Y3657D01*
X2896Y3683D01*
X2893Y3709D01*
X2883Y3734D01*
X2866Y3755D01*
X2845Y3772D01*
X2820Y3782D01*
X2794Y3785D01*
D02*
G37*
G36*
X254D02*
X228Y3782D01*
X203Y3772D01*
X182Y3755D01*
X165Y3734D01*
X155Y3709D01*
X152Y3683D01*
X155Y3657D01*
X165Y3632D01*
X182Y3611D01*
X203Y3594D01*
X228Y3584D01*
X254Y3581D01*
X280Y3584D01*
X305Y3594D01*
X326Y3611D01*
X343Y3632D01*
X353Y3657D01*
X356Y3683D01*
X353Y3709D01*
X343Y3734D01*
X326Y3755D01*
X305Y3772D01*
X280Y3782D01*
X254Y3785D01*
D02*
G37*
G36*
X2045Y3663D02*
Y3569D01*
X2139D01*
X2137Y3584D01*
X2126Y3610D01*
X2109Y3633D01*
X2086Y3650D01*
X2060Y3661D01*
X2045Y3663D01*
D02*
G37*
G36*
X2019D02*
X2004Y3661D01*
X1978Y3650D01*
X1955Y3633D01*
X1938Y3610D01*
X1927Y3584D01*
X1925Y3569D01*
X2019D01*
Y3663D01*
D02*
G37*
G36*
X2139Y3543D02*
X2045D01*
Y3449D01*
X2060Y3451D01*
X2086Y3462D01*
X2109Y3479D01*
X2126Y3502D01*
X2137Y3528D01*
X2139Y3543D01*
D02*
G37*
G36*
X2019D02*
X1925D01*
X1927Y3528D01*
X1938Y3502D01*
X1955Y3479D01*
X1978Y3462D01*
X2004Y3451D01*
X2019Y3449D01*
Y3543D01*
D02*
G37*
G36*
X2794Y3531D02*
X2768Y3528D01*
X2743Y3518D01*
X2722Y3501D01*
X2705Y3480D01*
X2695Y3455D01*
X2692Y3429D01*
X2695Y3403D01*
X2705Y3378D01*
X2722Y3357D01*
X2743Y3340D01*
X2768Y3330D01*
X2794Y3327D01*
X2820Y3330D01*
X2845Y3340D01*
X2866Y3357D01*
X2883Y3378D01*
X2893Y3403D01*
X2896Y3429D01*
X2893Y3455D01*
X2883Y3480D01*
X2866Y3501D01*
X2845Y3518D01*
X2820Y3528D01*
X2794Y3531D01*
D02*
G37*
G36*
X254D02*
X228Y3528D01*
X203Y3518D01*
X182Y3501D01*
X165Y3480D01*
X155Y3455D01*
X152Y3429D01*
X155Y3403D01*
X165Y3378D01*
X182Y3357D01*
X203Y3340D01*
X228Y3330D01*
X254Y3327D01*
X280Y3330D01*
X305Y3340D01*
X326Y3357D01*
X343Y3378D01*
X353Y3403D01*
X356Y3429D01*
X353Y3455D01*
X343Y3480D01*
X326Y3501D01*
X305Y3518D01*
X280Y3528D01*
X254Y3531D01*
D02*
G37*
G36*
X2140Y3410D02*
X1924D01*
Y3194D01*
X2140D01*
Y3410D01*
D02*
G37*
G36*
X2794Y3277D02*
X2768Y3274D01*
X2743Y3264D01*
X2722Y3247D01*
X2705Y3226D01*
X2695Y3201D01*
X2692Y3175D01*
X2695Y3149D01*
X2705Y3124D01*
X2722Y3103D01*
X2743Y3086D01*
X2768Y3076D01*
X2794Y3073D01*
X2820Y3076D01*
X2845Y3086D01*
X2866Y3103D01*
X2883Y3124D01*
X2893Y3149D01*
X2896Y3175D01*
X2893Y3201D01*
X2883Y3226D01*
X2866Y3247D01*
X2845Y3264D01*
X2820Y3274D01*
X2794Y3277D01*
D02*
G37*
G36*
X254D02*
X228Y3274D01*
X203Y3264D01*
X182Y3247D01*
X165Y3226D01*
X155Y3201D01*
X152Y3175D01*
X155Y3149D01*
X165Y3124D01*
X182Y3103D01*
X203Y3086D01*
X228Y3076D01*
X254Y3073D01*
X280Y3076D01*
X305Y3086D01*
X326Y3103D01*
X343Y3124D01*
X353Y3149D01*
X356Y3175D01*
X353Y3201D01*
X343Y3226D01*
X326Y3247D01*
X305Y3264D01*
X280Y3274D01*
X254Y3277D01*
D02*
G37*
G36*
X2794Y3023D02*
X2768Y3020D01*
X2743Y3010D01*
X2722Y2993D01*
X2705Y2972D01*
X2695Y2947D01*
X2692Y2921D01*
X2695Y2895D01*
X2705Y2870D01*
X2722Y2849D01*
X2743Y2832D01*
X2768Y2822D01*
X2794Y2819D01*
X2820Y2822D01*
X2845Y2832D01*
X2866Y2849D01*
X2883Y2870D01*
X2893Y2895D01*
X2896Y2921D01*
X2893Y2947D01*
X2883Y2972D01*
X2866Y2993D01*
X2845Y3010D01*
X2820Y3020D01*
X2794Y3023D01*
D02*
G37*
G36*
X254D02*
X228Y3020D01*
X203Y3010D01*
X182Y2993D01*
X165Y2972D01*
X155Y2947D01*
X152Y2921D01*
X155Y2895D01*
X165Y2870D01*
X182Y2849D01*
X203Y2832D01*
X228Y2822D01*
X254Y2819D01*
X280Y2822D01*
X305Y2832D01*
X326Y2849D01*
X343Y2870D01*
X353Y2895D01*
X356Y2921D01*
X353Y2947D01*
X343Y2972D01*
X326Y2993D01*
X305Y3010D01*
X280Y3020D01*
X254Y3023D01*
D02*
G37*
G36*
X2032Y2903D02*
X2004Y2899D01*
X1978Y2888D01*
X1955Y2871D01*
X1938Y2848D01*
X1927Y2822D01*
X1923Y2794D01*
X1927Y2766D01*
X1938Y2740D01*
X1955Y2717D01*
X1978Y2700D01*
X2004Y2689D01*
X2032Y2685D01*
X2060Y2689D01*
X2086Y2700D01*
X2109Y2717D01*
X2126Y2740D01*
X2137Y2766D01*
X2141Y2794D01*
X2137Y2822D01*
X2126Y2848D01*
X2109Y2871D01*
X2086Y2888D01*
X2060Y2899D01*
X2032Y2903D01*
D02*
G37*
G36*
X2794Y2769D02*
X2768Y2766D01*
X2743Y2756D01*
X2722Y2739D01*
X2705Y2718D01*
X2695Y2693D01*
X2692Y2667D01*
X2695Y2641D01*
X2705Y2616D01*
X2722Y2595D01*
X2743Y2578D01*
X2768Y2568D01*
X2794Y2565D01*
X2820Y2568D01*
X2845Y2578D01*
X2866Y2595D01*
X2883Y2616D01*
X2893Y2641D01*
X2896Y2667D01*
X2893Y2693D01*
X2883Y2718D01*
X2866Y2739D01*
X2845Y2756D01*
X2820Y2766D01*
X2794Y2769D01*
D02*
G37*
G36*
X254D02*
X228Y2766D01*
X203Y2756D01*
X182Y2739D01*
X165Y2718D01*
X155Y2693D01*
X152Y2667D01*
X155Y2641D01*
X165Y2616D01*
X182Y2595D01*
X203Y2578D01*
X228Y2568D01*
X254Y2565D01*
X280Y2568D01*
X305Y2578D01*
X326Y2595D01*
X343Y2616D01*
X353Y2641D01*
X356Y2667D01*
X353Y2693D01*
X343Y2718D01*
X326Y2739D01*
X305Y2756D01*
X280Y2766D01*
X254Y2769D01*
D02*
G37*
G36*
X2032Y2649D02*
X2004Y2645D01*
X1978Y2634D01*
X1955Y2617D01*
X1938Y2594D01*
X1927Y2568D01*
X1923Y2540D01*
X1927Y2512D01*
X1938Y2486D01*
X1955Y2463D01*
X1978Y2446D01*
X2004Y2435D01*
X2032Y2431D01*
X2060Y2435D01*
X2086Y2446D01*
X2109Y2463D01*
X2126Y2486D01*
X2137Y2512D01*
X2141Y2540D01*
X2137Y2568D01*
X2126Y2594D01*
X2109Y2617D01*
X2086Y2634D01*
X2060Y2645D01*
X2032Y2649D01*
D02*
G37*
G36*
X2794Y2515D02*
X2768Y2512D01*
X2743Y2502D01*
X2722Y2485D01*
X2705Y2464D01*
X2695Y2439D01*
X2692Y2413D01*
X2695Y2387D01*
X2705Y2362D01*
X2722Y2341D01*
X2743Y2324D01*
X2768Y2314D01*
X2794Y2311D01*
X2820Y2314D01*
X2845Y2324D01*
X2866Y2341D01*
X2883Y2362D01*
X2893Y2387D01*
X2896Y2413D01*
X2893Y2439D01*
X2883Y2464D01*
X2866Y2485D01*
X2845Y2502D01*
X2820Y2512D01*
X2794Y2515D01*
D02*
G37*
G36*
X254D02*
X228Y2512D01*
X203Y2502D01*
X182Y2485D01*
X165Y2464D01*
X155Y2439D01*
X152Y2413D01*
X155Y2387D01*
X165Y2362D01*
X182Y2341D01*
X203Y2324D01*
X228Y2314D01*
X254Y2311D01*
X280Y2314D01*
X305Y2324D01*
X326Y2341D01*
X343Y2362D01*
X353Y2387D01*
X356Y2413D01*
X353Y2439D01*
X343Y2464D01*
X326Y2485D01*
X305Y2502D01*
X280Y2512D01*
X254Y2515D01*
D02*
G37*
G36*
X2045Y2393D02*
Y2299D01*
X2139D01*
X2137Y2314D01*
X2126Y2340D01*
X2109Y2363D01*
X2086Y2380D01*
X2060Y2391D01*
X2045Y2393D01*
D02*
G37*
G36*
X2019D02*
X2004Y2391D01*
X1978Y2380D01*
X1955Y2363D01*
X1938Y2340D01*
X1927Y2314D01*
X1925Y2299D01*
X2019D01*
Y2393D01*
D02*
G37*
G36*
X2139Y2273D02*
X2045D01*
Y2179D01*
X2060Y2181D01*
X2086Y2192D01*
X2109Y2209D01*
X2126Y2232D01*
X2137Y2258D01*
X2139Y2273D01*
D02*
G37*
G36*
X2019D02*
X1925D01*
X1927Y2258D01*
X1938Y2232D01*
X1955Y2209D01*
X1978Y2192D01*
X2004Y2181D01*
X2019Y2179D01*
Y2273D01*
D02*
G37*
G36*
X267Y2260D02*
Y2172D01*
X355D01*
X353Y2185D01*
X343Y2210D01*
X326Y2231D01*
X305Y2248D01*
X280Y2258D01*
X267Y2260D01*
D02*
G37*
G36*
X241D02*
X228Y2258D01*
X203Y2248D01*
X182Y2231D01*
X165Y2210D01*
X155Y2185D01*
X153Y2172D01*
X241D01*
Y2260D01*
D02*
G37*
G36*
X355Y2146D02*
X267D01*
Y2058D01*
X280Y2060D01*
X305Y2070D01*
X326Y2087D01*
X343Y2108D01*
X353Y2133D01*
X355Y2146D01*
D02*
G37*
G36*
X241D02*
X153D01*
X155Y2133D01*
X165Y2108D01*
X182Y2087D01*
X203Y2070D01*
X228Y2060D01*
X241Y2058D01*
Y2146D01*
D02*
G37*
G36*
X2794Y2261D02*
X2768Y2258D01*
X2743Y2248D01*
X2722Y2231D01*
X2705Y2210D01*
X2695Y2185D01*
X2692Y2159D01*
X2695Y2133D01*
X2705Y2108D01*
X2722Y2087D01*
X2743Y2070D01*
X2768Y2060D01*
X2794Y2057D01*
X2820Y2060D01*
X2845Y2070D01*
X2866Y2087D01*
X2883Y2108D01*
X2893Y2133D01*
X2896Y2159D01*
X2893Y2185D01*
X2883Y2210D01*
X2866Y2231D01*
X2845Y2248D01*
X2820Y2258D01*
X2794Y2261D01*
D02*
G37*
G36*
X2140Y2140D02*
X1924D01*
Y1924D01*
X2140D01*
Y2140D01*
D02*
G37*
G36*
X2794Y2007D02*
X2768Y2004D01*
X2743Y1994D01*
X2722Y1977D01*
X2705Y1956D01*
X2695Y1931D01*
X2692Y1905D01*
X2695Y1879D01*
X2705Y1854D01*
X2722Y1833D01*
X2743Y1816D01*
X2768Y1806D01*
X2794Y1803D01*
X2820Y1806D01*
X2845Y1816D01*
X2866Y1833D01*
X2883Y1854D01*
X2893Y1879D01*
X2896Y1905D01*
X2893Y1931D01*
X2883Y1956D01*
X2866Y1977D01*
X2845Y1994D01*
X2820Y2004D01*
X2794Y2007D01*
D02*
G37*
G36*
X254D02*
X228Y2004D01*
X203Y1994D01*
X182Y1977D01*
X165Y1956D01*
X155Y1931D01*
X152Y1905D01*
X155Y1879D01*
X165Y1854D01*
X182Y1833D01*
X203Y1816D01*
X228Y1806D01*
X254Y1803D01*
X280Y1806D01*
X305Y1816D01*
X326Y1833D01*
X343Y1854D01*
X353Y1879D01*
X356Y1905D01*
X353Y1931D01*
X343Y1956D01*
X326Y1977D01*
X305Y1994D01*
X280Y2004D01*
X254Y2007D01*
D02*
G37*
G36*
X2794Y1753D02*
X2768Y1750D01*
X2743Y1740D01*
X2722Y1723D01*
X2705Y1702D01*
X2695Y1677D01*
X2692Y1651D01*
X2695Y1625D01*
X2705Y1600D01*
X2722Y1579D01*
X2743Y1562D01*
X2768Y1552D01*
X2794Y1549D01*
X2820Y1552D01*
X2845Y1562D01*
X2866Y1579D01*
X2883Y1600D01*
X2893Y1625D01*
X2896Y1651D01*
X2893Y1677D01*
X2883Y1702D01*
X2866Y1723D01*
X2845Y1740D01*
X2820Y1750D01*
X2794Y1753D01*
D02*
G37*
G36*
X254D02*
X228Y1750D01*
X203Y1740D01*
X182Y1723D01*
X165Y1702D01*
X155Y1677D01*
X152Y1651D01*
X155Y1625D01*
X165Y1600D01*
X182Y1579D01*
X203Y1562D01*
X228Y1552D01*
X254Y1549D01*
X280Y1552D01*
X305Y1562D01*
X326Y1579D01*
X343Y1600D01*
X353Y1625D01*
X356Y1651D01*
X353Y1677D01*
X343Y1702D01*
X326Y1723D01*
X305Y1740D01*
X280Y1750D01*
X254Y1753D01*
D02*
G37*
G36*
X2032Y1633D02*
X2004Y1629D01*
X1978Y1618D01*
X1955Y1601D01*
X1938Y1578D01*
X1927Y1552D01*
X1923Y1524D01*
X1927Y1496D01*
X1938Y1470D01*
X1955Y1447D01*
X1978Y1430D01*
X2004Y1419D01*
X2032Y1415D01*
X2060Y1419D01*
X2086Y1430D01*
X2109Y1447D01*
X2126Y1470D01*
X2137Y1496D01*
X2141Y1524D01*
X2137Y1552D01*
X2126Y1578D01*
X2109Y1601D01*
X2086Y1618D01*
X2060Y1629D01*
X2032Y1633D01*
D02*
G37*
G36*
X2794Y1499D02*
X2768Y1496D01*
X2743Y1486D01*
X2722Y1469D01*
X2705Y1448D01*
X2695Y1423D01*
X2692Y1397D01*
X2695Y1371D01*
X2705Y1346D01*
X2722Y1325D01*
X2743Y1308D01*
X2768Y1298D01*
X2794Y1295D01*
X2820Y1298D01*
X2845Y1308D01*
X2866Y1325D01*
X2883Y1346D01*
X2893Y1371D01*
X2896Y1397D01*
X2893Y1423D01*
X2883Y1448D01*
X2866Y1469D01*
X2845Y1486D01*
X2820Y1496D01*
X2794Y1499D01*
D02*
G37*
G36*
X254D02*
X228Y1496D01*
X203Y1486D01*
X182Y1469D01*
X165Y1448D01*
X155Y1423D01*
X152Y1397D01*
X155Y1371D01*
X165Y1346D01*
X182Y1325D01*
X203Y1308D01*
X228Y1298D01*
X254Y1295D01*
X280Y1298D01*
X305Y1308D01*
X326Y1325D01*
X343Y1346D01*
X353Y1371D01*
X356Y1397D01*
X353Y1423D01*
X343Y1448D01*
X326Y1469D01*
X305Y1486D01*
X280Y1496D01*
X254Y1499D01*
D02*
G37*
G36*
X2032Y1379D02*
X2004Y1375D01*
X1978Y1364D01*
X1955Y1347D01*
X1938Y1324D01*
X1927Y1298D01*
X1923Y1270D01*
X1927Y1242D01*
X1938Y1216D01*
X1955Y1193D01*
X1978Y1176D01*
X2004Y1165D01*
X2032Y1161D01*
X2060Y1165D01*
X2086Y1176D01*
X2109Y1193D01*
X2126Y1216D01*
X2137Y1242D01*
X2141Y1270D01*
X2137Y1298D01*
X2126Y1324D01*
X2109Y1347D01*
X2086Y1364D01*
X2060Y1375D01*
X2032Y1379D01*
D02*
G37*
G36*
X2794Y1245D02*
X2768Y1242D01*
X2743Y1232D01*
X2722Y1215D01*
X2705Y1194D01*
X2695Y1169D01*
X2692Y1143D01*
X2695Y1117D01*
X2705Y1092D01*
X2722Y1071D01*
X2743Y1054D01*
X2768Y1044D01*
X2794Y1041D01*
X2820Y1044D01*
X2845Y1054D01*
X2866Y1071D01*
X2883Y1092D01*
X2893Y1117D01*
X2896Y1143D01*
X2893Y1169D01*
X2883Y1194D01*
X2866Y1215D01*
X2845Y1232D01*
X2820Y1242D01*
X2794Y1245D01*
D02*
G37*
G36*
X254D02*
X228Y1242D01*
X203Y1232D01*
X182Y1215D01*
X165Y1194D01*
X155Y1169D01*
X152Y1143D01*
X155Y1117D01*
X165Y1092D01*
X182Y1071D01*
X203Y1054D01*
X228Y1044D01*
X254Y1041D01*
X280Y1044D01*
X305Y1054D01*
X326Y1071D01*
X343Y1092D01*
X353Y1117D01*
X356Y1143D01*
X353Y1169D01*
X343Y1194D01*
X326Y1215D01*
X305Y1232D01*
X280Y1242D01*
X254Y1245D01*
D02*
G37*
G36*
X2045Y1123D02*
Y1029D01*
X2139D01*
X2137Y1044D01*
X2126Y1070D01*
X2109Y1093D01*
X2086Y1110D01*
X2060Y1121D01*
X2045Y1123D01*
D02*
G37*
G36*
X2019D02*
X2004Y1121D01*
X1978Y1110D01*
X1955Y1093D01*
X1938Y1070D01*
X1927Y1044D01*
X1925Y1029D01*
X2019D01*
Y1123D01*
D02*
G37*
G36*
X2139Y1003D02*
X2045D01*
Y909D01*
X2060Y911D01*
X2086Y922D01*
X2109Y939D01*
X2126Y962D01*
X2137Y988D01*
X2139Y1003D01*
D02*
G37*
G36*
X2019D02*
X1925D01*
X1927Y988D01*
X1938Y962D01*
X1955Y939D01*
X1978Y922D01*
X2004Y911D01*
X2019Y909D01*
Y1003D01*
D02*
G37*
G36*
X2895Y990D02*
X2693D01*
Y788D01*
X2895D01*
Y990D01*
D02*
G37*
G36*
X254Y991D02*
X228Y988D01*
X203Y978D01*
X182Y961D01*
X165Y940D01*
X155Y915D01*
X152Y889D01*
X155Y863D01*
X165Y838D01*
X182Y817D01*
X203Y800D01*
X228Y790D01*
X254Y787D01*
X280Y790D01*
X305Y800D01*
X326Y817D01*
X343Y838D01*
X353Y863D01*
X356Y889D01*
X353Y915D01*
X343Y940D01*
X326Y961D01*
X305Y978D01*
X280Y988D01*
X254Y991D01*
D02*
G37*
G36*
X2140Y870D02*
X1924D01*
Y654D01*
X2140D01*
Y870D01*
D02*
G37*
G36*
X2794Y440D02*
X2758Y437D01*
X2723Y426D01*
X2690Y409D01*
X2662Y386D01*
X2639Y358D01*
X2622Y325D01*
X2611Y290D01*
X2608Y254D01*
X2611Y218D01*
X2622Y183D01*
X2639Y150D01*
X2662Y122D01*
X2690Y99D01*
X2723Y82D01*
X2758Y71D01*
X2794Y68D01*
X2830Y71D01*
X2865Y82D01*
X2898Y99D01*
X2926Y122D01*
X2949Y150D01*
X2966Y183D01*
X2977Y218D01*
X2980Y254D01*
X2977Y290D01*
X2966Y325D01*
X2949Y358D01*
X2926Y386D01*
X2898Y409D01*
X2865Y426D01*
X2830Y437D01*
X2794Y440D01*
D02*
G37*
G36*
X254D02*
X218Y437D01*
X183Y426D01*
X150Y409D01*
X122Y386D01*
X99Y358D01*
X82Y325D01*
X71Y290D01*
X68Y254D01*
X71Y218D01*
X82Y183D01*
X99Y150D01*
X122Y122D01*
X150Y99D01*
X183Y82D01*
X218Y71D01*
X254Y68D01*
X290Y71D01*
X325Y82D01*
X358Y99D01*
X386Y122D01*
X409Y150D01*
X426Y183D01*
X437Y218D01*
X440Y254D01*
X437Y290D01*
X426Y325D01*
X409Y358D01*
X386Y386D01*
X358Y409D01*
X325Y426D01*
X290Y437D01*
X254Y440D01*
D02*
G37*
%LPD*%
D18*
Y2159D02*
D03*
D21*
X1143Y5311D02*
D03*
X2032Y1016D02*
D03*
Y2286D02*
D03*
Y3556D02*
D03*
D22*
X1651Y5311D02*
D03*
D23*
X2034Y4826D02*
D03*
M02*
