G04*
G04 #@! TF.GenerationSoftware,Altium Limited,Altium Designer,20.0.10 (225)*
G04*
G04 Layer_Color=128*
%FSLAX42Y42*%
%MOMM*%
G71*
G01*
G75*
%ADD29C,0.05*%
D29*
X2743Y5461D02*
X2845D01*
X2794Y5410D02*
Y5512D01*
X2743Y5207D02*
X2845D01*
X2794Y5156D02*
Y5258D01*
X2743Y4445D02*
X2845D01*
X2794Y4394D02*
Y4496D01*
X2743Y4191D02*
X2845D01*
X2794Y4140D02*
Y4242D01*
X2743Y3937D02*
X2845D01*
X2794Y3886D02*
Y3988D01*
X2743Y3429D02*
X2845D01*
X2794Y3378D02*
Y3480D01*
X2743Y2921D02*
X2845D01*
X2794Y2870D02*
Y2972D01*
X2743Y2667D02*
X2845D01*
X2794Y2616D02*
Y2718D01*
X2743Y2159D02*
X2845D01*
X2794Y2108D02*
Y2210D01*
X2743Y1905D02*
X2845D01*
X2794Y1854D02*
Y1956D01*
X2743Y1651D02*
X2845D01*
X2794Y1600D02*
Y1702D01*
X2743Y1143D02*
X2845D01*
X2794Y1092D02*
Y1194D01*
X2743Y889D02*
X2845D01*
X2794Y838D02*
Y940D01*
X2743Y1397D02*
X2845D01*
X2794Y1346D02*
Y1448D01*
X2743Y2413D02*
X2845D01*
X2794Y2362D02*
Y2464D01*
X2743Y3175D02*
X2845D01*
X2794Y3124D02*
Y3226D01*
X2743Y3683D02*
X2845D01*
X2794Y3632D02*
Y3734D01*
X2743Y4699D02*
X2845D01*
X2794Y4648D02*
Y4750D01*
X2743Y4953D02*
X2845D01*
X2794Y4902D02*
Y5004D01*
X203Y889D02*
X305D01*
X254Y838D02*
Y940D01*
X203Y1143D02*
X305D01*
X254Y1092D02*
Y1194D01*
X203Y1905D02*
X305D01*
X254Y1854D02*
Y1956D01*
X203Y2159D02*
X305D01*
X254Y2108D02*
Y2210D01*
X203Y2413D02*
X305D01*
X254Y2362D02*
Y2464D01*
X203Y2921D02*
X305D01*
X254Y2870D02*
Y2972D01*
X203Y3429D02*
X305D01*
X254Y3378D02*
Y3480D01*
X203Y3683D02*
X305D01*
X254Y3632D02*
Y3734D01*
X203Y4191D02*
X305D01*
X254Y4140D02*
Y4242D01*
X203Y4445D02*
X305D01*
X254Y4394D02*
Y4496D01*
X203Y4699D02*
X305D01*
X254Y4648D02*
Y4750D01*
X203Y5207D02*
X305D01*
X254Y5156D02*
Y5258D01*
X203Y5461D02*
X305D01*
X254Y5410D02*
Y5512D01*
X203Y4953D02*
X305D01*
X254Y4902D02*
Y5004D01*
X203Y3937D02*
X305D01*
X254Y3886D02*
Y3988D01*
X203Y3175D02*
X305D01*
X254Y3124D02*
Y3226D01*
X203Y2667D02*
X305D01*
X254Y2616D02*
Y2718D01*
X203Y1651D02*
X305D01*
X254Y1600D02*
Y1702D01*
X203Y1397D02*
X305D01*
X254Y1346D02*
Y1448D01*
X2634Y6096D02*
X2954D01*
X2794Y5936D02*
Y6256D01*
X94Y6096D02*
X414D01*
X254Y5936D02*
Y6256D01*
X2634Y254D02*
X2954D01*
X2794Y94D02*
Y414D01*
X94Y254D02*
X414D01*
X254Y94D02*
Y414D01*
X1088Y5311D02*
X1198D01*
X1143Y5256D02*
Y5366D01*
X1342Y5311D02*
X1452D01*
X1397Y5256D02*
Y5366D01*
X1596Y5311D02*
X1706D01*
X1651Y5256D02*
Y5366D01*
X1977Y1524D02*
X2087D01*
X2032Y1469D02*
Y1579D01*
X1977Y1270D02*
X2087D01*
X2032Y1215D02*
Y1325D01*
X1977Y762D02*
X2087D01*
X2032Y707D02*
Y817D01*
X1977Y1016D02*
X2087D01*
X2032Y961D02*
Y1071D01*
X1977Y2794D02*
X2087D01*
X2032Y2739D02*
Y2849D01*
X1977Y2540D02*
X2087D01*
X2032Y2485D02*
Y2595D01*
X1977Y2032D02*
X2087D01*
X2032Y1977D02*
Y2087D01*
X1977Y2286D02*
X2087D01*
X2032Y2231D02*
Y2341D01*
X1977Y4064D02*
X2087D01*
X2032Y4009D02*
Y4119D01*
X1977Y3810D02*
X2087D01*
X2032Y3755D02*
Y3865D01*
X1977Y3302D02*
X2087D01*
X2032Y3247D02*
Y3357D01*
X1977Y3556D02*
X2087D01*
X2032Y3501D02*
Y3611D01*
X1979Y5334D02*
X2089D01*
X2034Y5279D02*
Y5389D01*
X1979Y5080D02*
X2089D01*
X2034Y5025D02*
Y5135D01*
X1979Y4826D02*
X2089D01*
X2034Y4771D02*
Y4881D01*
M02*
